<?xml version="1.0" encoding="utf-8"?>
<!-- Generator: Adobe Illustrator 28.0.0, SVG Export Plug-In . SVG Version: 6.00 Build 0)  -->
<svg version="1.1" xmlns="http://www.w3.org/2000/svg" xmlns:xlink="http://www.w3.org/1999/xlink" x="0px" y="0px"
	 viewBox="0 0 1000 1000" style="enable-background:new 0 0 1000 1000;" xml:space="preserve">
<style type="text/css">
	.st0{fill:#1F48A3;}
	.st1{fill:#4E92F4;}
</style>
<g id="Layer_0">
</g>
<g id="Layer_1">
	<g>
		<path class="st0" d="M366.4,488.7l0,0.1h-23.8l-30,89.9l-22.2,66.5c-2.6,7.8,3.2,15.8,11.4,15.8l289.1,0c8.2,0,14-8.1,11.4-15.8
			l-36.8-110.5l-15.3-45.8H366.4V488.7z"/>
		<path class="st1" d="M416.3,338.9l-15.2,0.1c-5.2,0-9.7,3.3-11.4,8.2l-27.3,81.7l-42.1,126.4l313.8,0.1c5.2,0,9.8-3.3,11.4-8.2
			l39.4-118.1l24.7-74.1c2.6-7.8-3.2-15.8-11.4-15.8L416.3,338.9z"/>
		<polygon class="st0" points="366.9,415.7 689.4,415.7 697.7,390.8 375.2,390.8 		"/>
		<path class="st0" d="M601.3,495.6l-6.8,20.5c-0.5,1.4,0.6,2.9,2.1,2.9h21.5c0.9,0,1.8-0.6,2.1-1.5L627,497
			c0.5-1.4-0.6-2.9-2.1-2.9h-21.5C602.4,494.1,601.6,494.7,601.3,495.6z"/>
		<path class="st0" d="M554.6,495.6l-6.8,20.5c-0.5,1.4,0.6,2.9,2.1,2.9h21.5c0.9,0,1.8-0.6,2.1-1.5l6.8-20.5
			c0.5-1.4-0.6-2.9-2.1-2.9h-21.5C555.7,494.1,554.9,494.7,554.6,495.6z"/>
	</g>
</g>
</svg>
